<svg xmlns="http://www.w3.org/2000/svg" viewBox="0 0 500 500"><g id="freepik--Floor--inject-3"><polygon id="freepik--Shadow--inject-3" points="6.99 346.49 270.99 194.05 494.41 323.04 230.39 475.48 6.99 346.49" style="fill:#e0e0e0"></polygon><g id="freepik--floor--inject-3"><polygon points="230.37 445.54 28.27 328.86 270 189.29 472.1 306.07 230.37 445.54" style="fill:#44E0A9"></polygon><polygon points="230.37 445.54 28.27 328.86 270 189.29 472.1 306.07 230.37 445.54" style="fill:#fff;opacity:0.4"></polygon><polygon points="28.27 328.86 28.27 340.02 230.37 456.71 230.37 445.54 28.27 328.86" style="fill:#44E0A9"></polygon><polygon points="28.27 328.86 28.27 340.02 230.37 456.71 230.37 445.54 28.27 328.86" style="opacity:0.15"></polygon><polygon points="230.37 456.71 472.1 317.24 472.1 306.07 230.37 445.54 230.37 456.71" style="fill:#44E0A9"></polygon></g></g><g id="freepik--washing-machines--inject-3"><g id="freepik--washing-machines--inject-3"><g id="freepik--Washer--inject-3"><polygon points="207.76 328.4 207.76 318.81 178.7 302.03 178.7 311.62 207.76 328.4" style="fill:#455a64"></polygon><polygon points="207.76 318.81 207.76 275.66 178.7 258.88 178.7 302.03 207.76 318.81" style="fill:#e0e0e0"></polygon><polygon points="207.76 318.81 236.83 302.03 236.83 311.62 207.76 328.4 207.76 318.81" style="fill:#37474f"></polygon><polygon points="207.76 275.66 236.83 258.88 236.83 302.03 207.76 318.81 207.76 275.66" style="fill:#e0e0e0"></polygon><polygon points="207.76 275.66 236.83 258.88 236.83 302.03 207.76 318.81 207.76 275.66" style="opacity:0.25"></polygon><polygon points="207.76 275.66 178.7 258.88 207.76 242.1 236.83 258.88 207.76 275.66" style="fill:#ebebeb"></polygon><path d="M200.13,250.86h0a1.33,1.33,0,0,1,.63.14l21.16,12.22.09.07-.09.07-13.52,7.81a1.4,1.4,0,0,1-1.26,0L186,259a.26.26,0,0,1-.09-.06.17.17,0,0,1,.09-.07L199.5,251a1.28,1.28,0,0,1,.63-.14m0-.51a1.86,1.86,0,0,0-.89.21l-13.52,7.81c-.49.29-.49.75,0,1l21.17,12.22a1.79,1.79,0,0,0,.88.21,1.86,1.86,0,0,0,.89-.21l13.51-7.82a.54.54,0,0,0,0-1L201,250.56a1.79,1.79,0,0,0-.88-.21Z" style="fill:#e0e0e0"></path><path d="M214.64,249.91,207.9,246a1.27,1.27,0,0,0-1.11,0l-4.12,2.38a.39.39,0,0,0-.23.32c0,.07,0,.35,0,.42a.4.4,0,0,0,.23.31l6.73,3.89a1.23,1.23,0,0,0,1.12,0l4.12-2.38a.36.36,0,0,0,.22-.31v-.42A.38.38,0,0,0,214.64,249.91Z" style="fill:#e0e0e0"></path><path d="M214.64,249.91,207.9,246a1.27,1.27,0,0,0-1.11,0l-4.12,2.38a.39.39,0,0,0-.23.32c0,.07,0,.35,0,.42a.4.4,0,0,0,.23.31l6.73,3.89a1.23,1.23,0,0,0,1.12,0l4.12-2.38a.36.36,0,0,0,.22-.31v-.42A.38.38,0,0,0,214.64,249.91Z" style="opacity:0.1"></path><path d="M202.67,248.4l4.12-2.38a1.27,1.27,0,0,1,1.11,0l6.74,3.89a.34.34,0,0,1,0,.65l-4.12,2.37a1.23,1.23,0,0,1-1.12,0l-6.73-3.88A.34.34,0,0,1,202.67,248.4Z" style="fill:#e0e0e0"></path></g><g id="freepik--washer--inject-3"><polygon points="240.98 347.58 240.98 338 211.91 321.21 211.91 330.8 240.98 347.58" style="fill:#455a64"></polygon><polygon points="240.98 338 240.98 294.85 211.91 278.06 211.91 321.21 240.98 338" style="fill:#e0e0e0"></polygon><polygon points="240.98 338 270.04 321.21 270.04 330.8 240.98 347.58 240.98 338" style="fill:#37474f"></polygon><polygon points="240.98 294.85 270.04 278.06 270.04 321.21 240.98 338 240.98 294.85" style="fill:#e0e0e0"></polygon><polygon points="240.98 294.85 270.04 278.06 270.04 321.21 240.98 338 240.98 294.85" style="opacity:0.25"></polygon><polygon points="240.98 294.84 211.91 278.06 240.98 261.28 270.04 278.06 240.98 294.84" style="fill:#ebebeb"></polygon><path d="M233.35,270h0a1.26,1.26,0,0,1,.62.14l21.17,12.22.09.07-.09.07-13.52,7.81a1.4,1.4,0,0,1-1.26,0L219.2,278.14l-.1-.07a.29.29,0,0,1,.1-.07l13.52-7.82a1.28,1.28,0,0,1,.63-.14m0-.51a1.79,1.79,0,0,0-.88.21l-13.52,7.82a.54.54,0,0,0,0,1L240.1,290.8a1.86,1.86,0,0,0,.89.21,1.79,1.79,0,0,0,.88-.21L255.39,283a.54.54,0,0,0,0-1l-21.16-12.22a1.83,1.83,0,0,0-.89-.21Z" style="fill:#e0e0e0"></path><path d="M247.86,269.09l-6.74-3.89a1.27,1.27,0,0,0-1.11,0l-4.12,2.38a.39.39,0,0,0-.23.32v.42a.37.37,0,0,0,.23.31l6.73,3.89a1.23,1.23,0,0,0,1.12,0l4.12-2.38a.36.36,0,0,0,.22-.31v-.42A.38.38,0,0,0,247.86,269.09Z" style="fill:#e0e0e0"></path><path d="M247.86,269.09l-6.74-3.89a1.27,1.27,0,0,0-1.11,0l-4.12,2.38a.39.39,0,0,0-.23.32v.42a.37.37,0,0,0,.23.31l6.73,3.89a1.23,1.23,0,0,0,1.12,0l4.12-2.38a.36.36,0,0,0,.22-.31v-.42A.38.38,0,0,0,247.86,269.09Z" style="opacity:0.1"></path><path d="M235.89,267.58,240,265.2a1.29,1.29,0,0,1,1.12,0l6.74,3.89a.35.35,0,0,1,0,.65l-4.12,2.37a1.23,1.23,0,0,1-1.12,0l-6.73-3.88A.34.34,0,0,1,235.89,267.58Z" style="fill:#e0e0e0"></path></g><g id="freepik--washer--inject-3"><polygon points="274.2 366.76 274.2 357.17 245.13 340.39 245.13 349.98 274.2 366.76" style="fill:#455a64"></polygon><polygon points="274.2 357.17 274.2 314.02 245.13 297.24 245.13 340.39 274.2 357.17" style="fill:#e0e0e0"></polygon><polygon points="274.2 357.17 303.26 340.39 303.26 349.98 274.2 366.76 274.2 357.17" style="fill:#37474f"></polygon><polygon points="274.2 314.02 303.26 297.24 303.26 340.39 274.2 357.17 274.2 314.02" style="fill:#e0e0e0"></polygon><polygon points="274.2 314.02 303.26 297.24 303.26 340.39 274.2 357.17 274.2 314.02" style="opacity:0.25"></polygon><polygon points="274.2 314.02 245.13 297.24 274.2 280.46 303.26 297.24 274.2 314.02" style="fill:#ebebeb"></polygon><path d="M266.56,289.22h0a1.28,1.28,0,0,1,.63.14l21.16,12.22a.29.29,0,0,1,.1.07l-.1.07-13.51,7.81a1.33,1.33,0,0,1-.63.14,1.31,1.31,0,0,1-.63-.14l-21.16-12.22a.29.29,0,0,1-.1-.07l.1-.07,13.51-7.81a1.33,1.33,0,0,1,.63-.14m0-.51a1.79,1.79,0,0,0-.88.21l-13.52,7.81a.54.54,0,0,0,0,1L273.32,310a1.86,1.86,0,0,0,.89.21,1.79,1.79,0,0,0,.88-.21l13.52-7.81a.54.54,0,0,0,0-1l-21.16-12.21a1.86,1.86,0,0,0-.89-.21Z" style="fill:#e0e0e0"></path><path d="M281.07,288.27l-6.73-3.89a1.23,1.23,0,0,0-1.12,0l-4.11,2.38a.37.37,0,0,0-.23.31v.43a.39.39,0,0,0,.23.31l6.73,3.89a1.23,1.23,0,0,0,1.12,0l4.11-2.38a.39.39,0,0,0,.23-.31v-.43A.39.39,0,0,0,281.07,288.27Z" style="fill:#e0e0e0"></path><path d="M281.07,288.27l-6.73-3.89a1.23,1.23,0,0,0-1.12,0l-4.11,2.38a.37.37,0,0,0-.23.31v.43a.39.39,0,0,0,.23.31l6.73,3.89a1.23,1.23,0,0,0,1.12,0l4.11-2.38a.39.39,0,0,0,.23-.31v-.43A.39.39,0,0,0,281.07,288.27Z" style="opacity:0.1"></path><path d="M269.11,286.76l4.11-2.38a1.23,1.23,0,0,1,1.12,0l6.73,3.89c.31.18.31.47,0,.64L277,291.29a1.23,1.23,0,0,1-1.12,0l-6.73-3.89C268.8,287.23,268.8,286.94,269.11,286.76Z" style="fill:#e0e0e0"></path></g><polygon points="265.89 371.56 170.39 316.42 170.39 258.88 265.89 314.02 265.89 371.56" style="fill:#44E0A9"></polygon><polygon points="265.89 371.56 170.39 316.42 170.39 258.88 265.89 314.02 265.89 371.56" style="fill:#fff;opacity:0.1"></polygon><polygon points="270.05 369.16 270.05 311.62 265.89 314.02 265.89 371.56 270.05 369.16" style="fill:#44E0A9"></polygon><polygon points="270.05 369.16 270.05 311.62 265.89 314.02 265.89 371.56 270.05 369.16" style="fill:#fff;opacity:0.4"></polygon><polygon points="265.89 314.02 265.89 309.22 270.05 306.83 270.05 311.62 265.89 314.02" style="fill:#f0f0f0"></polygon><polygon points="265.89 309.22 265.89 314.02 170.39 258.88 170.39 254.09 265.89 309.22" style="fill:#e0e0e0"></polygon><polygon points="270.05 306.83 265.89 309.22 170.39 254.09 174.54 251.69 270.05 306.83" style="fill:#fafafa"></polygon><g id="freepik--washer--inject-3"><polygon points="166.24 352.38 166.24 342.79 137.18 326.01 137.18 335.6 166.24 352.38" style="fill:#455a64"></polygon><polygon points="166.24 342.79 166.24 299.64 137.18 282.86 137.18 326.01 166.24 342.79" style="fill:#e0e0e0"></polygon><path d="M153.08,327.8a8.21,8.21,0,0,0,3.93,1.25,3.83,3.83,0,0,0,1.14-.19c.12-.11.25-.23.37-.36a7.34,7.34,0,0,0,1.24-4.55,21,21,0,0,0-3-10l-10.83,6.25A21,21,0,0,0,153.08,327.8Z" style="opacity:0.25"></path><path d="M158.15,328.86a3.83,3.83,0,0,1-1.14.19,8.21,8.21,0,0,1-3.93-1.25c-5.53-3.2-10.2-11.29-10.2-17.68,0-1.24.2-3.63,1.6-4.94-2.54.77-2.85,4.12-2.85,5.67,0,6.38,4.68,14.47,10.21,17.67a8.18,8.18,0,0,0,3.92,1.25,3.39,3.39,0,0,0,2.76-1.27C158.4,328.63,158.27,328.75,158.15,328.86Z" style="fill:#263238"></path><path d="M151.94,303.57c-3.12-1.81-5.95-2-8-.79l-1.25.73c-2.06,1.18-3.33,3.72-3.33,7.33,0,7.24,5.08,16,11.34,19.66,3.14,1.8,6,2,8,.78l1.28-.73c2-1.19,3.31-3.72,3.31-7.32C163.3,316,158.21,307.19,151.94,303.57Zm6.58,24.93a3.12,3.12,0,0,1-.37.36,3.78,3.78,0,0,1-1.14.19,8.21,8.21,0,0,1-3.93-1.25c-5.53-3.2-10.2-11.29-10.2-17.68,0-1.24.2-3.64,1.6-4.93a3.71,3.71,0,0,1,1.15-.17,8.15,8.15,0,0,1,3.92,1.25c5.54,3.19,10.21,11.28,10.21,17.68A7.34,7.34,0,0,1,158.52,328.5Z" style="fill:#f0f0f0"></path><path d="M151.94,303.57c-3.12-1.81-5.95-2-8-.79l-1.25.73c-2.06,1.18-3.33,3.72-3.33,7.33,0,7.24,5.08,16,11.34,19.66,3.14,1.8,6,2,8,.78l1.28-.73c2-1.19,3.31-3.72,3.31-7.32C163.3,316,158.21,307.19,151.94,303.57Zm6.58,24.93a3.12,3.12,0,0,1-.37.36,3.78,3.78,0,0,1-1.14.19,8.21,8.21,0,0,1-3.93-1.25c-5.53-3.2-10.2-11.29-10.2-17.68,0-1.24.2-3.64,1.6-4.93a3.71,3.71,0,0,1,1.15-.17,8.15,8.15,0,0,1,3.92,1.25c5.54,3.19,10.21,11.28,10.21,17.68A7.34,7.34,0,0,1,158.52,328.5Z" style="opacity:0.25"></path><path d="M150.69,304.29c-6.26-3.62-11.34-.68-11.34,6.55s5.08,16,11.34,19.66S162,331.18,162,324,157,307.91,150.69,304.29Zm7.83,24.21a3.39,3.39,0,0,1-2.76,1.27,8.18,8.18,0,0,1-3.92-1.25c-5.54-3.2-10.21-11.29-10.21-17.68,0-1.75.39-5.82,4-5.82a8.15,8.15,0,0,1,3.92,1.25c5.54,3.19,10.21,11.28,10.21,17.68A7.34,7.34,0,0,1,158.52,328.5Z" style="fill:#ebebeb"></path><path d="M159.76,324a7.34,7.34,0,0,1-1.24,4.55c-.12.13-.25.25-.37.36a3.83,3.83,0,0,1-1.14.19,8.21,8.21,0,0,1-3.93-1.25c-5.53-3.2-10.2-11.29-10.2-17.68,0-1.24.2-3.63,1.6-4.94l.27-.06.27-.05h.1a2.78,2.78,0,0,1,.51,0,8.15,8.15,0,0,1,3.92,1.25C155.09,309.46,159.76,317.56,159.76,324Z" style="fill:#44E0A9;opacity:0.5"></path><path d="M155.39,318.09c.31.43.61.87.93,1.29-.25-.47-.52-.92-.78-1.38l-.81-1.36c-.54-.9-1.1-1.79-1.66-2.68s-1.14-1.77-1.74-2.65-1.18-1.74-1.81-2.59c.5.93,1,1.84,1.58,2.74s1.1,1.8,1.67,2.69,1.14,1.77,1.73,2.64Zm-9.28-3.47c.51.93,1,1.84,1.59,2.74s1.1,1.8,1.66,2.69,1.15,1.77,1.74,2.64L152,324c.31.42.61.86.93,1.28-.25-.47-.52-.92-.78-1.38l-.81-1.36c-.54-.9-1.1-1.79-1.66-2.68s-1.15-1.77-1.74-2.65S146.74,315.47,146.11,314.62Zm5.06,2.57c.9,1.38,1.79,2.78,2.71,4.16l1.38,2.07c.47.68.93,1.37,1.41,2.05-.41-.72-.85-1.43-1.27-2.14l-1.29-2.13c-.87-1.41-1.76-2.8-2.64-4.21s-1.79-2.78-2.71-4.16-1.83-2.76-2.79-4.12c.83,1.44,1.69,2.85,2.56,4.26S150.29,315.78,151.17,317.19Z" style="fill:#fafafa;opacity:0.2"></path><path d="M151.45,307.59c3.85,5.28,7.37,14.05,3.73,17-2.48,2-5.32.35-7.7-2a19.31,19.31,0,0,0,5.6,5.24,8.21,8.21,0,0,0,3.93,1.25,3.83,3.83,0,0,0,1.14-.19c.12-.11.25-.23.37-.36a7.34,7.34,0,0,0,1.24-4.55C159.76,318.3,156.11,311.34,151.45,307.59Z" style="opacity:0.25"></path><polygon points="137.17 292.45 137.17 291.54 166.24 308.32 166.24 309.23 137.17 292.45" style="opacity:0.25"></polygon><polygon points="166.24 342.79 195.31 326.01 195.31 335.6 166.24 352.38 166.24 342.79" style="fill:#37474f"></polygon><polygon points="166.24 299.64 195.31 282.86 195.31 326.01 166.24 342.79 166.24 299.64" style="fill:#e0e0e0"></polygon><polygon points="166.24 299.64 195.31 282.86 195.31 326.01 166.24 342.79 166.24 299.64" style="opacity:0.25"></polygon><polygon points="160.39 297.25 165.31 300.1 165.31 302.94 160.39 300.1 160.39 297.25" style="fill:#455a64"></polygon><path d="M160.39,301.12v1.08l.86.49v-1.07Zm0,2.84.86.5v-1.08l-.86-.5Z" style="fill:#455a64"></path><polygon points="163.96 303.18 163.1 302.68 163.1 303.76 163.96 304.26 163.96 303.18" style="fill:#455a64"></polygon><polygon points="161.74 304.74 162.6 305.24 162.6 304.16 161.74 303.67 161.74 304.74" style="fill:#455a64"></polygon><polygon points="162.6 302.4 161.74 301.9 161.74 302.98 162.6 303.48 162.6 302.4" style="fill:#455a64"></polygon><polygon points="165.31 303.96 164.45 303.47 164.45 304.54 165.31 305.04 165.31 303.96" style="fill:#455a64"></polygon><path d="M164.45,305.23v1.08l.86.49v-1.08Z" style="fill:#455a64"></path><polygon points="163.1 305.52 163.96 306.02 163.96 304.94 163.1 304.45 163.1 305.52" style="fill:#455a64"></polygon><polygon points="158.11 299.82 159 300.33 158.99 303.2 158.11 302.69 158.11 299.82" style="fill:#263238"></polygon><polygon points="158.11 302.69 159 302.18 158.99 303.2 158.11 302.69" style="fill:#455a64"></polygon><path d="M161.76,298.56a.2.2,0,0,0-.09-.11l-.37-.21a.06.06,0,0,0-.09,0l-.06,0a.11.11,0,0,0,0,.1v.55a.28.28,0,0,0,0,.15l.06.11a.35.35,0,0,0,.09.11l.31.18a.15.15,0,0,1,.08.14V300c0,.07,0,.09-.08.06l-.25-.15a.14.14,0,0,1-.08-.14v-.17a.16.16,0,0,0-.07-.15h0c-.05,0-.08,0-.08.06v.24a.28.28,0,0,0,0,.15l.06.12a.3.3,0,0,0,.09.1l.37.21s.07,0,.09,0l.06-.05a.11.11,0,0,0,0-.1v-.51a.28.28,0,0,0,0-.15l-.06-.11a.2.2,0,0,0-.09-.11l-.31-.18a.15.15,0,0,1-.08-.14v-.4c0-.07,0-.09.08-.06l.25.14a.16.16,0,0,1,.08.15v.2a.14.14,0,0,0,.08.14l0,0c.05,0,.07,0,.07-.06v-.27a.28.28,0,0,0,0-.15Zm.65.92a.14.14,0,0,1-.07-.14v-.09a.16.16,0,0,0-.08-.15h0c-.05,0-.08,0-.08.06v.09s0,.05,0,.06h0a0,0,0,0,0-.06,0,.1.1,0,0,0,0,.07v0a.16.16,0,0,0,.08.15l0,.05a.15.15,0,0,1,0,.09v.66a.28.28,0,0,0,0,.15l.06.12a.45.45,0,0,0,.09.1l.14.08s.07,0,.07-.06v0c0-.07,0-.12-.07-.14l-.08-.05a.15.15,0,0,1-.07-.14v-.59c0-.07,0-.09.07-.06l.08.05s.07,0,.07-.06v0a.15.15,0,0,0-.07-.14Zm.81.52a.24.24,0,0,0-.1-.1l-.34-.2c-.05,0-.08,0-.08.05v0a.14.14,0,0,0,.08.14l.29.17a.16.16,0,0,1,.07.15h0c0,.07,0,.08-.07.06l-.18-.11s-.07,0-.09,0l-.06,0,0,0v.36a.39.39,0,0,0,0,.14l.07.12a.2.2,0,0,0,.09.11l.35.2s.08,0,.08-.06v-.89a.43.43,0,0,0,0-.14Zm-.08.84c0,.07,0,.09-.07.06l-.13-.07a.16.16,0,0,1-.07-.15v-.18c0-.07,0-.09.07-.06l.13.07a.16.16,0,0,1,.07.15Zm1.18,0,.07.05c.06,0,.08,0,.08-.06v0a.15.15,0,0,0-.08-.15l-.07,0a.16.16,0,0,1-.08-.15v-.09a.14.14,0,0,0-.07-.14l0,0c-.05,0-.08,0-.08.06v.09a.08.08,0,0,1,0,.07s0,0-.05,0,0,0-.06,0a.12.12,0,0,0,0,.07v0a.16.16,0,0,0,.08.15.1.1,0,0,1,.05.06.11.11,0,0,1,0,.08v.66a.28.28,0,0,0,0,.15l.06.12a.3.3,0,0,0,.09.1l.13.08c.06,0,.08,0,.08-.06v0a.13.13,0,0,0-.08-.14l-.07,0a.15.15,0,0,1-.08-.14v-.59C164.24,300.8,164.27,300.78,164.32,300.81Zm-.58-.56a.09.09,0,0,0-.1,0l-.06,0a.16.16,0,0,0,0,.11v.88a.16.16,0,0,0,.08.15h0c.05,0,.08,0,.08-.06v-.81s0-.06,0-.07,0,0,.05,0,.07,0,.07-.07v0a.16.16,0,0,0-.08-.14Z" style="fill:#44E0A9"></path><path d="M161.76,298.56a.2.2,0,0,0-.09-.11l-.37-.21a.06.06,0,0,0-.09,0l-.06,0a.11.11,0,0,0,0,.1v.55a.28.28,0,0,0,0,.15l.06.11a.35.35,0,0,0,.09.11l.31.18a.15.15,0,0,1,.08.14V300c0,.07,0,.09-.08.06l-.25-.15a.14.14,0,0,1-.08-.14v-.17a.16.16,0,0,0-.07-.15h0c-.05,0-.08,0-.08.06v.24a.28.28,0,0,0,0,.15l.06.12a.3.3,0,0,0,.09.1l.37.21s.07,0,.09,0l.06-.05a.11.11,0,0,0,0-.1v-.51a.28.28,0,0,0,0-.15l-.06-.11a.2.2,0,0,0-.09-.11l-.31-.18a.15.15,0,0,1-.08-.14v-.4c0-.07,0-.09.08-.06l.25.14a.16.16,0,0,1,.08.15v.2a.14.14,0,0,0,.08.14l0,0c.05,0,.07,0,.07-.06v-.27a.28.28,0,0,0,0-.15Zm.65.92a.14.14,0,0,1-.07-.14v-.09a.16.16,0,0,0-.08-.15h0c-.05,0-.08,0-.08.06v.09s0,.05,0,.06h0a0,0,0,0,0-.06,0,.1.1,0,0,0,0,.07v0a.16.16,0,0,0,.08.15l0,.05a.15.15,0,0,1,0,.09v.66a.28.28,0,0,0,0,.15l.06.12a.45.45,0,0,0,.09.1l.14.08s.07,0,.07-.06v0c0-.07,0-.12-.07-.14l-.08-.05a.15.15,0,0,1-.07-.14v-.59c0-.07,0-.09.07-.06l.08.05s.07,0,.07-.06v0a.15.15,0,0,0-.07-.14Zm.81.52a.24.24,0,0,0-.1-.1l-.34-.2c-.05,0-.08,0-.08.05v0a.14.14,0,0,0,.08.14l.29.17a.16.16,0,0,1,.07.15h0c0,.07,0,.08-.07.06l-.18-.11s-.07,0-.09,0l-.06,0,0,0v.36a.39.39,0,0,0,0,.14l.07.12a.2.2,0,0,0,.09.11l.35.2s.08,0,.08-.06v-.89a.43.43,0,0,0,0-.14Zm-.08.84c0,.07,0,.09-.07.06l-.13-.07a.16.16,0,0,1-.07-.15v-.18c0-.07,0-.09.07-.06l.13.07a.16.16,0,0,1,.07.15Zm1.18,0,.07.05c.06,0,.08,0,.08-.06v0a.15.15,0,0,0-.08-.15l-.07,0a.16.16,0,0,1-.08-.15v-.09a.14.14,0,0,0-.07-.14l0,0c-.05,0-.08,0-.08.06v.09a.08.08,0,0,1,0,.07s0,0-.05,0,0,0-.06,0a.12.12,0,0,0,0,.07v0a.16.16,0,0,0,.08.15.1.1,0,0,1,.05.06.11.11,0,0,1,0,.08v.66a.28.28,0,0,0,0,.15l.06.12a.3.3,0,0,0,.09.1l.13.08c.06,0,.08,0,.08-.06v0a.13.13,0,0,0-.08-.14l-.07,0a.15.15,0,0,1-.08-.14v-.59C164.24,300.8,164.27,300.78,164.32,300.81Zm-.58-.56a.09.09,0,0,0-.1,0l-.06,0a.16.16,0,0,0,0,.11v.88a.16.16,0,0,0,.08.15h0c.05,0,.08,0,.08-.06v-.81s0-.06,0-.07,0,0,.05,0,.07,0,.07-.07v0a.16.16,0,0,0-.08-.14Z" style="fill:#fff;opacity:0.30000000000000004"></path><polygon points="195.31 282.86 166.24 266.08 137.18 282.86 166.24 299.64 195.31 282.86" style="fill:#ebebeb"></polygon><path d="M166.24,270.43h0a1.33,1.33,0,0,1,.63.14L188,282.79a.29.29,0,0,1,.1.07l-.1.07-13.52,7.81a1.28,1.28,0,0,1-.63.14,1.33,1.33,0,0,1-.63-.14l-21.16-12.22a.35.35,0,0,1-.09-.07l.09-.07,13.52-7.81a1.33,1.33,0,0,1,.63-.14m0-.51a1.86,1.86,0,0,0-.89.21l-13.51,7.81c-.49.28-.49.74,0,1L173,291.18a1.79,1.79,0,0,0,.88.22,1.86,1.86,0,0,0,.89-.22l13.52-7.81a.54.54,0,0,0,0-1l-21.16-12.22a1.86,1.86,0,0,0-.89-.21Z" style="fill:#e0e0e0"></path><path d="M144.32,282.5l4.12-2.38a1.23,1.23,0,0,1,1.12,0l6.73,3.89c.31.18.31.47,0,.64L152.17,287a1.21,1.21,0,0,1-1.11,0l-6.74-3.89A.34.34,0,0,1,144.32,282.5Z" style="fill:#e0e0e0"></path><path d="M151.34,281.15l-5.23,3,.27.16,5.24-3Z" style="fill:#fafafa"></path><path d="M154,282.66l-5.23,3,.27.16,5.23-3Z" style="fill:#fafafa"></path><path d="M154.23,282.82l-5.23,3,2.06,1.19a1.21,1.21,0,0,0,1.11,0l2.06-1.19Z" style="opacity:0.1"></path><polygon points="151.62 281.31 151.62 284.01 148.73 285.68 146.38 284.33 151.62 281.31" style="opacity:0.1"></polygon><path d="M149,282.52V280h0a1.16,1.16,0,0,0-.56.13l-4.12,2.38a.34.34,0,0,0,0,.64l1.79,1Z" style="opacity:0.1"></path><path d="M151.13,273.76l-.3.17-2,5.46,8.19,4.73.31-.18,2-5.46Z" style="fill:#e0e0e0"></path><polygon points="157.04 284.12 148.85 279.39 150.83 273.93 159.01 278.66 157.04 284.12" style="fill:#e6e6e6"></polygon><polygon points="156.96 283.89 149.04 279.32 150.91 274.16 158.82 278.73 156.96 283.89" style="opacity:0.1"></polygon><polygon points="149.35 279.2 157.05 283.64 158.82 278.73 151.12 274.29 149.35 279.2" style="opacity:0.1"></polygon><polygon points="149.35 279.2 149.04 279.32 156.96 283.89 157.05 283.64 149.35 279.2" style="opacity:0.30000000000000004"></polygon><polygon points="151.13 273.76 159.32 278.48 159.01 278.66 150.83 273.93 151.13 273.76" style="fill:#f0f0f0"></polygon></g><g id="freepik--washer--inject-3"><polygon points="199.46 371.56 199.46 361.97 170.39 345.19 170.39 354.77 199.46 371.56" style="fill:#455a64"></polygon><polygon points="199.46 361.97 199.46 318.82 170.39 302.04 170.39 345.19 199.46 361.97" style="fill:#e0e0e0"></polygon><path d="M186.3,347a8.19,8.19,0,0,0,3.93,1.24,3.83,3.83,0,0,0,1.14-.18,4.08,4.08,0,0,0,.36-.36,7.27,7.27,0,0,0,1.24-4.55,20.83,20.83,0,0,0-3-10l-10.82,6.25A21,21,0,0,0,186.3,347Z" style="opacity:0.25"></path><path d="M191.37,348a3.83,3.83,0,0,1-1.14.18A8.19,8.19,0,0,1,186.3,347c-5.53-3.2-10.2-11.3-10.2-17.68,0-1.24.2-3.64,1.6-4.94-2.54.77-2.85,4.12-2.85,5.66,0,6.39,4.67,14.48,10.2,17.68A8.21,8.21,0,0,0,189,349a3.35,3.35,0,0,0,2.75-1.27A4.08,4.08,0,0,1,191.37,348Z" style="fill:#263238"></path><path d="M185.16,322.75c-3.13-1.81-6-2-8-.79l-1.25.72c-2.06,1.19-3.33,3.72-3.33,7.34,0,7.24,5.08,16,11.34,19.65,3.13,1.81,6,2,8,.79l1.28-.73c2-1.19,3.31-3.72,3.31-7.32C196.51,335.17,191.43,326.37,185.16,322.75Zm6.57,24.92a4.21,4.21,0,0,1-.36.37,3.83,3.83,0,0,1-1.14.19A8.21,8.21,0,0,1,186.3,347c-5.53-3.2-10.2-11.29-10.2-17.68,0-1.24.2-3.64,1.6-4.94a4,4,0,0,1,1.15-.16,8.07,8.07,0,0,1,3.92,1.25c5.53,3.19,10.21,11.28,10.2,17.67A7.25,7.25,0,0,1,191.73,347.67Z" style="fill:#f0f0f0"></path><path d="M185.16,322.75c-3.13-1.81-6-2-8-.79l-1.25.72c-2.06,1.19-3.33,3.72-3.33,7.34,0,7.24,5.08,16,11.34,19.65,3.13,1.81,6,2,8,.79l1.28-.73c2-1.19,3.31-3.72,3.31-7.32C196.51,335.17,191.43,326.37,185.16,322.75Zm6.57,24.92a4.21,4.21,0,0,1-.36.37,3.83,3.83,0,0,1-1.14.19A8.21,8.21,0,0,1,186.3,347c-5.53-3.2-10.2-11.29-10.2-17.68,0-1.24.2-3.64,1.6-4.94a4,4,0,0,1,1.15-.16,8.07,8.07,0,0,1,3.92,1.25c5.53,3.19,10.21,11.28,10.2,17.67A7.25,7.25,0,0,1,191.73,347.67Z" style="opacity:0.25"></path><path d="M183.91,323.47c-6.26-3.62-11.34-.68-11.34,6.55s5.08,16,11.34,19.65,11.35.69,11.35-6.55S190.18,327.08,183.91,323.47Zm7.82,24.2a3.34,3.34,0,0,1-2.75,1.27,8.19,8.19,0,0,1-3.93-1.24c-5.53-3.2-10.2-11.29-10.2-17.68,0-1.75.39-5.82,4-5.82a8.07,8.07,0,0,1,3.92,1.25c5.53,3.19,10.21,11.28,10.2,17.67A7.25,7.25,0,0,1,191.73,347.67Z" style="fill:#ebebeb"></path><path d="M193,343.13a7.27,7.27,0,0,1-1.24,4.55,4.08,4.08,0,0,1-.36.36,3.83,3.83,0,0,1-1.14.18A8.19,8.19,0,0,1,186.3,347c-5.53-3.2-10.2-11.3-10.2-17.68,0-1.24.2-3.64,1.6-4.94l.26-.07.28,0,.1,0a4.12,4.12,0,0,1,.51,0,8.18,8.18,0,0,1,3.92,1.25C188.3,328.64,193,336.73,193,343.13Z" style="fill:#44E0A9;opacity:0.5"></path><path d="M188.61,337.27c.31.43.61.87.93,1.29-.25-.47-.52-.92-.78-1.38l-.81-1.36c-.54-.91-1.1-1.8-1.66-2.69s-1.15-1.77-1.74-2.64-1.19-1.74-1.82-2.59c.51.93,1.05,1.84,1.59,2.74s1.1,1.8,1.66,2.69,1.15,1.77,1.74,2.64Zm-9.28-3.47c.51.93,1,1.84,1.59,2.74s1.1,1.8,1.66,2.69,1.14,1.77,1.74,2.64l.89,1.3c.31.43.61.87.92,1.29-.25-.47-.51-.92-.77-1.38l-.81-1.36c-.54-.91-1.1-1.8-1.67-2.69s-1.14-1.77-1.73-2.64S180,334.65,179.33,333.8Zm5.06,2.56c.9,1.39,1.79,2.79,2.7,4.17l1.38,2.07c.47.68.93,1.37,1.41,2-.41-.72-.84-1.43-1.26-2.15l-1.29-2.12c-.87-1.41-1.76-2.8-2.64-4.21s-1.8-2.79-2.71-4.17-1.84-2.75-2.79-4.11c.83,1.43,1.69,2.85,2.56,4.26S183.51,335,184.39,336.36Z" style="fill:#fafafa;opacity:0.2"></path><path d="M184.67,326.77c3.85,5.28,7.37,14.05,3.72,17-2.47,2-5.31.35-7.69-2a19.31,19.31,0,0,0,5.6,5.24,8.19,8.19,0,0,0,3.93,1.24,3.83,3.83,0,0,0,1.14-.18,4.08,4.08,0,0,0,.36-.36,7.27,7.27,0,0,0,1.24-4.55C193,337.48,189.33,330.52,184.67,326.77Z" style="opacity:0.25"></path><polygon points="170.39 311.62 170.39 310.71 199.46 327.5 199.46 328.4 170.39 311.62" style="opacity:0.25"></polygon><polygon points="199.46 361.97 228.52 345.19 228.52 354.77 199.46 371.56 199.46 361.97" style="fill:#37474f"></polygon><polygon points="199.46 318.82 228.52 302.04 228.52 345.19 199.46 361.97 199.46 318.82" style="fill:#e0e0e0"></polygon><polygon points="199.46 318.82 228.52 302.04 228.52 345.19 199.46 361.97 199.46 318.82" style="opacity:0.25"></polygon><polygon points="193.61 316.43 198.53 319.27 198.53 322.11 193.61 319.27 193.61 316.43" style="fill:#455a64"></polygon><path d="M193.61,320.3v1.08l.86.49V320.8Zm0,2.84.86.5v-1.08l-.86-.5Z" style="fill:#455a64"></path><polygon points="197.17 322.36 196.31 321.86 196.31 322.94 197.17 323.44 197.17 322.36" style="fill:#455a64"></polygon><polygon points="194.96 323.92 195.82 324.42 195.82 323.34 194.96 322.84 194.96 323.92" style="fill:#455a64"></polygon><polygon points="195.82 321.58 194.96 321.08 194.96 322.16 195.82 322.65 195.82 321.58" style="fill:#455a64"></polygon><polygon points="198.53 323.14 197.67 322.64 197.67 323.72 198.53 324.22 198.53 323.14" style="fill:#455a64"></polygon><path d="M197.67,324.41v1.07l.86.5V324.9Z" style="fill:#455a64"></path><polygon points="196.31 324.7 197.17 325.2 197.17 324.12 196.31 323.62 196.31 324.7" style="fill:#455a64"></polygon><polygon points="191.33 319 192.21 319.51 192.21 322.38 191.33 321.87 191.33 319" style="fill:#263238"></polygon><polygon points="191.33 321.87 192.21 321.36 192.21 322.38 191.33 321.87" style="fill:#455a64"></polygon><path d="M195,317.73a.22.22,0,0,0-.09-.1l-.37-.22s-.07,0-.09,0l-.06,0a.11.11,0,0,0,0,.1v.55a.23.23,0,0,0,0,.14l.06.12a.24.24,0,0,0,.09.11l.31.17a.16.16,0,0,1,.08.15v.36c0,.07,0,.09-.08.06l-.25-.15a.15.15,0,0,1-.08-.14v-.18a.15.15,0,0,0-.07-.14h0c-.05,0-.07,0-.07.06v.24a.28.28,0,0,0,0,.15l.06.12a.3.3,0,0,0,.09.1l.37.21a.1.1,0,0,0,.09,0l.06-.05a.12.12,0,0,0,0-.1v-.51a.28.28,0,0,0,0-.15l-.06-.12a.29.29,0,0,0-.09-.1l-.31-.18a.16.16,0,0,1-.08-.14v-.41c0-.06,0-.08.08-.05l.25.14a.16.16,0,0,1,.08.15v.2a.14.14,0,0,0,.07.14h0c.05,0,.08,0,.08-.05V318a.27.27,0,0,0,0-.14Zm.65.93a.16.16,0,0,1-.08-.14v-.09a.16.16,0,0,0-.07-.15h0c-.05,0-.08,0-.08.06v.09a.08.08,0,0,1,0,.06h-.05s-.05,0-.06,0a.08.08,0,0,0,0,.06v0a.15.15,0,0,0,.08.14l.05.06a.29.29,0,0,1,0,.09v.66a.23.23,0,0,0,0,.14l.06.12a.35.35,0,0,0,.09.11l.13.07c.05,0,.08,0,.08-.05v0a.16.16,0,0,0-.08-.15l-.07,0a.16.16,0,0,1-.08-.14V319c0-.07,0-.09.08-.06l.07,0c.05,0,.08,0,.08-.05v0a.15.15,0,0,0-.08-.14Zm.8.52a.2.2,0,0,0-.09-.11l-.35-.2c-.05,0-.07,0-.07.06v0a.14.14,0,0,0,.07.14l.3.17a.16.16,0,0,1,.07.15h0c0,.07,0,.09-.07.06l-.18-.1a.12.12,0,0,0-.1,0l-.06.05,0,0s0,0,0,.06v.29a.42.42,0,0,0,0,.15l.06.12a.36.36,0,0,0,.1.11l.35.2s.07,0,.07-.06v-.89a.32.32,0,0,0,0-.14Zm-.07.84c0,.07,0,.09-.07.06l-.13-.07a.16.16,0,0,1-.08-.15v-.19c0-.06,0-.08.08-.05l.13.07a.15.15,0,0,1,.07.14Zm1.18,0,.07.05s.08,0,.08-.06v0a.16.16,0,0,0-.08-.14l-.07-.05a.15.15,0,0,1-.08-.14v-.09a.16.16,0,0,0-.07-.15h0c-.05,0-.07,0-.07.06v.09a.08.08,0,0,1,0,.06h-.06s0,0-.05,0a.1.1,0,0,0,0,.07v0a.16.16,0,0,0,.07.15.1.1,0,0,1,.06.05.29.29,0,0,1,0,.09v.66a.28.28,0,0,0,0,.15l.06.12a.29.29,0,0,0,.09.1l.13.08s.08,0,.08-.06v0a.14.14,0,0,0-.08-.14l-.07-.05a.16.16,0,0,1-.08-.14v-.59C197.46,320,197.49,320,197.54,320Zm-.59-.56a.08.08,0,0,0-.09,0l-.06,0a.12.12,0,0,0,0,.1v.89a.16.16,0,0,0,.08.15h0s.07,0,.07-.06v-.81a.1.1,0,0,1,0-.07H197s.06,0,.06-.06v0a.15.15,0,0,0-.07-.14Z" style="fill:#44E0A9"></path><path d="M195,317.73a.22.22,0,0,0-.09-.1l-.37-.22s-.07,0-.09,0l-.06,0a.11.11,0,0,0,0,.1v.55a.23.23,0,0,0,0,.14l.06.12a.24.24,0,0,0,.09.11l.31.17a.16.16,0,0,1,.08.15v.36c0,.07,0,.09-.08.06l-.25-.15a.15.15,0,0,1-.08-.14v-.18a.15.15,0,0,0-.07-.14h0c-.05,0-.07,0-.07.06v.24a.28.28,0,0,0,0,.15l.06.12a.3.3,0,0,0,.09.1l.37.21a.1.1,0,0,0,.09,0l.06-.05a.12.12,0,0,0,0-.1v-.51a.28.28,0,0,0,0-.15l-.06-.12a.29.29,0,0,0-.09-.1l-.31-.18a.16.16,0,0,1-.08-.14v-.41c0-.06,0-.08.08-.05l.25.14a.16.16,0,0,1,.08.15v.2a.14.14,0,0,0,.07.14h0c.05,0,.08,0,.08-.05V318a.27.27,0,0,0,0-.14Zm.65.93a.16.16,0,0,1-.08-.14v-.09a.16.16,0,0,0-.07-.15h0c-.05,0-.08,0-.08.06v.09a.08.08,0,0,1,0,.06h-.05s-.05,0-.06,0a.08.08,0,0,0,0,.06v0a.15.15,0,0,0,.08.14l.05.06a.29.29,0,0,1,0,.09v.66a.23.23,0,0,0,0,.14l.06.12a.35.35,0,0,0,.09.11l.13.07c.05,0,.08,0,.08-.05v0a.16.16,0,0,0-.08-.15l-.07,0a.16.16,0,0,1-.08-.14V319c0-.07,0-.09.08-.06l.07,0c.05,0,.08,0,.08-.05v0a.15.15,0,0,0-.08-.14Zm.8.52a.2.2,0,0,0-.09-.11l-.35-.2c-.05,0-.07,0-.07.06v0a.14.14,0,0,0,.07.14l.3.17a.16.16,0,0,1,.07.15h0c0,.07,0,.09-.07.06l-.18-.1a.12.12,0,0,0-.1,0l-.06.05,0,0s0,0,0,.06v.29a.42.42,0,0,0,0,.15l.06.12a.36.36,0,0,0,.1.11l.35.2s.07,0,.07-.06v-.89a.32.32,0,0,0,0-.14Zm-.07.84c0,.07,0,.09-.07.06l-.13-.07a.16.16,0,0,1-.08-.15v-.19c0-.06,0-.08.08-.05l.13.07a.15.15,0,0,1,.07.14Zm1.18,0,.07.05s.08,0,.08-.06v0a.16.16,0,0,0-.08-.14l-.07-.05a.15.15,0,0,1-.08-.14v-.09a.16.16,0,0,0-.07-.15h0c-.05,0-.07,0-.07.06v.09a.08.08,0,0,1,0,.06h-.06s0,0-.05,0a.1.1,0,0,0,0,.07v0a.16.16,0,0,0,.07.15.1.1,0,0,1,.06.05.29.29,0,0,1,0,.09v.66a.28.28,0,0,0,0,.15l.06.12a.29.29,0,0,0,.09.1l.13.08s.08,0,.08-.06v0a.14.14,0,0,0-.08-.14l-.07-.05a.16.16,0,0,1-.08-.14v-.59C197.46,320,197.49,320,197.54,320Zm-.59-.56a.08.08,0,0,0-.09,0l-.06,0a.12.12,0,0,0,0,.1v.89a.16.16,0,0,0,.08.15h0s.07,0,.07-.06v-.81a.1.1,0,0,1,0-.07H197s.06,0,.06-.06v0a.15.15,0,0,0-.07-.14Z" style="fill:#fff;opacity:0.30000000000000004"></path><polygon points="228.52 302.04 199.46 285.25 170.39 302.04 199.46 318.82 228.52 302.04" style="fill:#ebebeb"></polygon><path d="M199.46,289.61h0a1.33,1.33,0,0,1,.63.14L221.25,302l.09.06a.35.35,0,0,1-.09.07l-13.52,7.82a1.49,1.49,0,0,1-1.26,0L185.31,297.7a.07.07,0,1,1,0-.14l13.52-7.81a1.33,1.33,0,0,1,.63-.14m0-.52a1.86,1.86,0,0,0-.89.22l-13.52,7.81a.54.54,0,0,0,0,1l21.17,12.22a1.79,1.79,0,0,0,.88.21,1.86,1.86,0,0,0,.89-.21l13.51-7.81a.54.54,0,0,0,0-1l-21.16-12.21a1.69,1.69,0,0,0-.88-.22Z" style="fill:#e0e0e0"></path><path d="M189.51,302.78l-6.74-3.89a1.21,1.21,0,0,0-1.11,0l-4.12,2.38a.38.38,0,0,0-.22.31V302a.38.38,0,0,0,.22.31l6.74,3.89a1.21,1.21,0,0,0,1.11,0l4.12-2.38a.38.38,0,0,0,.22-.31v-.43A.38.38,0,0,0,189.51,302.78Z" style="fill:#e0e0e0"></path><path d="M189.51,302.78l-6.74-3.89a1.21,1.21,0,0,0-1.11,0l-4.12,2.38a.38.38,0,0,0-.22.31V302a.38.38,0,0,0,.22.31l6.74,3.89a1.21,1.21,0,0,0,1.11,0l4.12-2.38a.38.38,0,0,0,.22-.31v-.43A.38.38,0,0,0,189.51,302.78Z" style="opacity:0.1"></path><path d="M177.54,301.27l4.12-2.38a1.21,1.21,0,0,1,1.11,0l6.74,3.89c.31.18.31.47,0,.64l-4.12,2.38a1.21,1.21,0,0,1-1.11,0l-6.74-3.89C177.23,301.74,177.23,301.45,177.54,301.27Z" style="fill:#e0e0e0"></path></g><g id="freepik--washer--inject-3"><polygon points="232.68 390.73 232.68 381.14 203.61 364.36 203.61 373.95 232.68 390.73" style="fill:#455a64"></polygon><polygon points="232.68 381.14 232.68 337.99 203.61 321.21 203.61 364.36 232.68 381.14" style="fill:#e0e0e0"></polygon><path d="M219.52,366.15a8.11,8.11,0,0,0,3.93,1.25,3.83,3.83,0,0,0,1.14-.18,4.21,4.21,0,0,0,.36-.37,7.25,7.25,0,0,0,1.24-4.55,20.83,20.83,0,0,0-3-10l-10.82,6.25A20.92,20.92,0,0,0,219.52,366.15Z" style="opacity:0.25"></path><path d="M224.59,367.22a3.83,3.83,0,0,1-1.14.18,8.11,8.11,0,0,1-3.93-1.25c-5.53-3.19-10.2-11.29-10.2-17.67,0-1.24.19-3.64,1.59-4.94-2.54.77-2.84,4.12-2.84,5.66,0,6.39,4.67,14.48,10.2,17.68a8.19,8.19,0,0,0,3.93,1.24,3.35,3.35,0,0,0,2.75-1.27A4.21,4.21,0,0,1,224.59,367.22Z" style="fill:#263238"></path><path d="M218.38,341.93c-3.13-1.81-6-2-8-.79l-1.26.72c-2.05,1.19-3.32,3.72-3.32,7.34,0,7.24,5.08,16,11.34,19.65,3.13,1.81,6,2,8,.79l1.28-.73c2-1.19,3.3-3.72,3.3-7.33C229.73,354.35,224.65,345.54,218.38,341.93ZM225,366.85a3.23,3.23,0,0,1-.37.37,3.72,3.72,0,0,1-1.13.18,8.19,8.19,0,0,1-3.93-1.24c-5.53-3.2-10.2-11.3-10.2-17.68,0-1.24.2-3.64,1.6-4.94a4,4,0,0,1,1.14-.16,8.07,8.07,0,0,1,3.93,1.25c5.53,3.18,10.21,11.28,10.2,17.67A7.25,7.25,0,0,1,225,366.85Z" style="fill:#f0f0f0"></path><path d="M218.38,341.93c-3.13-1.81-6-2-8-.79l-1.26.72c-2.05,1.19-3.32,3.72-3.32,7.34,0,7.24,5.08,16,11.34,19.65,3.13,1.81,6,2,8,.79l1.28-.73c2-1.19,3.3-3.72,3.3-7.33C229.73,354.35,224.65,345.54,218.38,341.93ZM225,366.85a3.23,3.23,0,0,1-.37.37,3.72,3.72,0,0,1-1.13.18,8.19,8.19,0,0,1-3.93-1.24c-5.53-3.2-10.2-11.3-10.2-17.68,0-1.24.2-3.64,1.6-4.94a4,4,0,0,1,1.14-.16,8.07,8.07,0,0,1,3.93,1.25c5.53,3.18,10.21,11.28,10.2,17.67A7.25,7.25,0,0,1,225,366.85Z" style="opacity:0.25"></path><path d="M217.13,342.65c-6.26-3.62-11.34-.69-11.34,6.55s5.08,16,11.34,19.65,11.34.69,11.34-6.55S223.4,346.26,217.13,342.65Zm7.82,24.2a3.35,3.35,0,0,1-2.75,1.27,8.11,8.11,0,0,1-3.93-1.25c-5.53-3.19-10.2-11.29-10.2-17.67,0-1.75.39-5.82,4-5.82a8.07,8.07,0,0,1,3.93,1.25c5.53,3.18,10.21,11.28,10.2,17.67A7.25,7.25,0,0,1,225,366.85Z" style="fill:#ebebeb"></path><path d="M226.19,362.3a7.25,7.25,0,0,1-1.24,4.55,4.21,4.21,0,0,1-.36.37,3.83,3.83,0,0,1-1.14.18,8.11,8.11,0,0,1-3.93-1.25c-5.53-3.19-10.2-11.29-10.2-17.67,0-1.24.19-3.64,1.59-4.94l.27-.07a2.51,2.51,0,0,1,.27,0l.1,0a4.24,4.24,0,0,1,.51,0,8.07,8.07,0,0,1,3.93,1.25C221.52,347.82,226.2,355.91,226.19,362.3Z" style="fill:#44E0A9;opacity:0.5"></path><path d="M221.83,356.45l.92,1.29c-.25-.47-.51-.92-.77-1.38l-.81-1.36c-.54-.91-1.1-1.8-1.67-2.69s-1.14-1.77-1.73-2.64-1.19-1.74-1.82-2.59c.51.93,1,1.83,1.59,2.74s1.1,1.79,1.66,2.68,1.14,1.78,1.74,2.65ZM212.55,353c.5.93,1,1.84,1.58,2.74s1.11,1.79,1.67,2.68,1.14,1.78,1.73,2.65l.9,1.3c.31.43.6.86.92,1.29-.25-.47-.52-.92-.78-1.38l-.8-1.36c-.54-.91-1.11-1.8-1.67-2.69s-1.14-1.77-1.73-2.64S213.18,353.83,212.55,353Zm5,2.56c.91,1.39,1.8,2.79,2.71,4.17l1.38,2.07c.47.68.93,1.37,1.41,2-.41-.72-.84-1.42-1.26-2.14l-1.3-2.12c-.86-1.41-1.76-2.81-2.63-4.21s-1.8-2.79-2.71-4.17-1.84-2.76-2.79-4.11c.83,1.43,1.69,2.85,2.56,4.26S216.73,354.14,217.6,355.54Z" style="fill:#fafafa;opacity:0.2"></path><path d="M217.89,345.94c3.85,5.29,7.37,14.05,3.72,17-2.47,2-5.31.35-7.69-2a19.14,19.14,0,0,0,5.6,5.23,8.11,8.11,0,0,0,3.93,1.25,3.83,3.83,0,0,0,1.14-.18,4.21,4.21,0,0,0,.36-.37,7.25,7.25,0,0,0,1.24-4.55C226.2,356.66,222.55,349.69,217.89,345.94Z" style="opacity:0.25"></path><polygon points="203.61 330.8 203.61 329.89 232.68 346.67 232.68 347.58 203.61 330.8" style="opacity:0.25"></polygon><polygon points="232.68 381.14 261.74 364.36 261.74 373.95 232.68 390.73 232.68 381.14" style="fill:#37474f"></polygon><polygon points="232.68 337.99 261.74 321.21 261.74 364.36 232.68 381.14 232.68 337.99" style="fill:#e0e0e0"></polygon><polygon points="232.68 337.99 261.74 321.21 261.74 364.36 232.68 381.14 232.68 337.99" style="opacity:0.25"></polygon><polygon points="226.82 335.61 231.74 338.45 231.74 341.29 226.82 338.45 226.82 335.61" style="fill:#455a64"></polygon><path d="M226.82,339.48v1.08l.86.49V340Zm0,2.84.86.49v-1.07l-.86-.5Z" style="fill:#455a64"></path><polygon points="230.39 341.54 229.53 341.04 229.53 342.12 230.39 342.61 230.39 341.54" style="fill:#455a64"></polygon><polygon points="228.18 343.1 229.04 343.6 229.04 342.52 228.18 342.02 228.18 343.1" style="fill:#455a64"></polygon><polygon points="229.04 340.75 228.18 340.26 228.18 341.34 229.04 341.83 229.04 340.75" style="fill:#455a64"></polygon><polygon points="231.74 342.32 230.88 341.82 230.88 342.9 231.74 343.39 231.74 342.32" style="fill:#455a64"></polygon><path d="M230.88,343.58v1.08l.86.5v-1.08Z" style="fill:#455a64"></path><polygon points="229.53 343.88 230.39 344.38 230.39 343.3 229.53 342.8 229.53 343.88" style="fill:#455a64"></polygon><polygon points="224.55 338.18 225.43 338.69 225.43 341.56 224.55 341.05 224.55 338.18" style="fill:#263238"></polygon><polygon points="224.55 341.05 225.43 340.54 225.43 341.56 224.55 341.05" style="fill:#455a64"></polygon><path d="M228.2,336.91a.53.53,0,0,0-.09-.11l-.37-.21s-.07,0-.09,0l-.07,0a.18.18,0,0,0,0,.11v.55a.35.35,0,0,0,0,.14l.07.12a.18.18,0,0,0,.09.1l.31.18a.16.16,0,0,1,.08.15v.36c0,.07,0,.09-.08.06l-.25-.15a.16.16,0,0,1-.08-.14v-.18a.16.16,0,0,0-.08-.14h0c-.05,0-.07,0-.07.05v.25a.4.4,0,0,0,0,.15l.07.12a.22.22,0,0,0,.09.1l.37.21a.08.08,0,0,0,.09,0l.06,0a.16.16,0,0,0,0-.11V338a.37.37,0,0,0,0-.14l-.06-.12a.3.3,0,0,0-.09-.1l-.31-.18a.16.16,0,0,1-.08-.15v-.4c0-.06,0-.08.08-.06l.25.15a.16.16,0,0,1,.08.15v.2a.15.15,0,0,0,.07.14h0c.05,0,.08,0,.08-.05v-.28a.37.37,0,0,0,0-.14Zm.65.93a.16.16,0,0,1-.08-.14v-.1a.14.14,0,0,0-.08-.14h0s-.07,0-.07.06v.09a.08.08,0,0,1,0,.06s0,0-.06,0h-.05s0,0,0,.06v0a.15.15,0,0,0,.07.14s0,0,.06.06a.2.2,0,0,1,0,.09v.66a.25.25,0,0,0,0,.14l.06.12a.24.24,0,0,0,.09.11l.13.07c.05,0,.08,0,.08-.06v0a.16.16,0,0,0-.08-.15l-.07,0a.16.16,0,0,1-.08-.15v-.58c0-.07,0-.09.08-.06l.07,0c.05,0,.08,0,.08-.06v0a.16.16,0,0,0-.08-.15Zm.8.52a.25.25,0,0,0-.09-.11l-.35-.2c-.05,0-.07,0-.07.06v0a.15.15,0,0,0,.07.14l.29.17a.16.16,0,0,1,.08.14h0c0,.07,0,.09-.08.06l-.18-.1a.08.08,0,0,0-.09,0l-.06.05,0,0s0,0,0,.06V339a.28.28,0,0,0,0,.15l.06.12a.3.3,0,0,0,.09.1l.35.21c.06,0,.08,0,.08-.06v-.89a.28.28,0,0,0,0-.15Zm-.07.84c0,.07,0,.09-.08.06l-.12-.07a.16.16,0,0,1-.08-.15v-.19c0-.06,0-.08.08-.05l.12.07a.16.16,0,0,1,.08.14Zm1.17,0,.08,0s.08,0,.08,0v0a.15.15,0,0,0-.08-.14l-.08-.05a.15.15,0,0,1-.07-.14v-.09a.16.16,0,0,0-.08-.15h0c-.05,0-.07,0-.07.06v.09a.08.08,0,0,1,0,.06h-.06s0,0-.05,0,0,0,0,.06v0a.14.14,0,0,0,.07.14l.06.06a.29.29,0,0,1,0,.09v.66a.28.28,0,0,0,0,.15l.06.11a.2.2,0,0,0,.09.11l.13.07s.08,0,.08-.05v0a.16.16,0,0,0-.08-.15l-.08,0a.15.15,0,0,1-.07-.14v-.59C230.68,339.16,230.7,339.14,230.75,339.17Zm-.58-.56s-.07,0-.09,0l-.06,0a.11.11,0,0,0,0,.1v.89a.15.15,0,0,0,.08.15h0c.06,0,.08,0,.08-.06v-.82a.08.08,0,0,1,0-.06h.05s.06,0,.06-.06v0a.14.14,0,0,0-.07-.14Z" style="fill:#44E0A9"></path><path d="M228.2,336.91a.53.53,0,0,0-.09-.11l-.37-.21s-.07,0-.09,0l-.07,0a.18.18,0,0,0,0,.11v.55a.35.35,0,0,0,0,.14l.07.12a.18.18,0,0,0,.09.1l.31.18a.16.16,0,0,1,.08.15v.36c0,.07,0,.09-.08.06l-.25-.15a.16.16,0,0,1-.08-.14v-.18a.16.16,0,0,0-.08-.14h0c-.05,0-.07,0-.07.05v.25a.4.4,0,0,0,0,.15l.07.12a.22.22,0,0,0,.09.1l.37.21a.08.08,0,0,0,.09,0l.06,0a.16.16,0,0,0,0-.11V338a.37.37,0,0,0,0-.14l-.06-.12a.3.3,0,0,0-.09-.1l-.31-.18a.16.16,0,0,1-.08-.15v-.4c0-.06,0-.08.08-.06l.25.15a.16.16,0,0,1,.08.15v.2a.15.15,0,0,0,.07.14h0c.05,0,.08,0,.08-.05v-.28a.37.37,0,0,0,0-.14Zm.65.93a.16.16,0,0,1-.08-.14v-.1a.14.14,0,0,0-.08-.14h0s-.07,0-.07.06v.09a.08.08,0,0,1,0,.06s0,0-.06,0h-.05s0,0,0,.06v0a.15.15,0,0,0,.07.14s0,0,.06.06a.2.2,0,0,1,0,.09v.66a.25.25,0,0,0,0,.14l.06.12a.24.24,0,0,0,.09.11l.13.07c.05,0,.08,0,.08-.06v0a.16.16,0,0,0-.08-.15l-.07,0a.16.16,0,0,1-.08-.15v-.58c0-.07,0-.09.08-.06l.07,0c.05,0,.08,0,.08-.06v0a.16.16,0,0,0-.08-.15Zm.8.52a.25.25,0,0,0-.09-.11l-.35-.2c-.05,0-.07,0-.07.06v0a.15.15,0,0,0,.07.14l.29.17a.16.16,0,0,1,.08.14h0c0,.07,0,.09-.08.06l-.18-.1a.08.08,0,0,0-.09,0l-.06.05,0,0s0,0,0,.06V339a.28.28,0,0,0,0,.15l.06.12a.3.3,0,0,0,.09.1l.35.21c.06,0,.08,0,.08-.06v-.89a.28.28,0,0,0,0-.15Zm-.07.84c0,.07,0,.09-.08.06l-.12-.07a.16.16,0,0,1-.08-.15v-.19c0-.06,0-.08.08-.05l.12.07a.16.16,0,0,1,.08.14Zm1.17,0,.08,0s.08,0,.08,0v0a.15.15,0,0,0-.08-.14l-.08-.05a.15.15,0,0,1-.07-.14v-.09a.16.16,0,0,0-.08-.15h0c-.05,0-.07,0-.07.06v.09a.08.08,0,0,1,0,.06h-.06s0,0-.05,0,0,0,0,.06v0a.14.14,0,0,0,.07.14l.06.06a.29.29,0,0,1,0,.09v.66a.28.28,0,0,0,0,.15l.06.11a.2.2,0,0,0,.09.11l.13.07s.08,0,.08-.05v0a.16.16,0,0,0-.08-.15l-.08,0a.15.15,0,0,1-.07-.14v-.59C230.68,339.16,230.7,339.14,230.75,339.17Zm-.58-.56s-.07,0-.09,0l-.06,0a.11.11,0,0,0,0,.1v.89a.15.15,0,0,0,.08.15h0c.06,0,.08,0,.08-.06v-.82a.08.08,0,0,1,0-.06h.05s.06,0,.06-.06v0a.14.14,0,0,0-.07-.14Z" style="fill:#fff;opacity:0.30000000000000004"></path><polygon points="261.74 321.21 232.68 304.43 203.61 321.21 232.68 337.99 261.74 321.21" style="fill:#ebebeb"></polygon><path d="M232.68,308.78h0a1.26,1.26,0,0,1,.62.15l21.17,12.21.09.07a.35.35,0,0,1-.09.07L241,329.1a1.49,1.49,0,0,1-1.26,0l-21.16-12.22-.1-.07.1-.07,13.52-7.81a1.27,1.27,0,0,1,.63-.15m0-.51a1.83,1.83,0,0,0-.89.21l-13.52,7.82a.54.54,0,0,0,0,1l21.16,12.22a1.86,1.86,0,0,0,.89.21,1.79,1.79,0,0,0,.88-.21l13.52-7.82a.54.54,0,0,0,0-1l-21.16-12.22a1.79,1.79,0,0,0-.88-.21Z" style="fill:#e0e0e0"></path><path d="M210.76,320.85l4.12-2.37a1.21,1.21,0,0,1,1.11,0l6.74,3.89c.31.17.31.46,0,.64l-4.12,2.38a1.29,1.29,0,0,1-1.12,0l-6.73-3.89A.34.34,0,0,1,210.76,320.85Z" style="fill:#e0e0e0"></path><path d="M217.78,319.51l-5.23,3,.27.16,5.23-3Z" style="fill:#fafafa"></path><path d="M220.39,321l-5.23,3,.27.16,5.24-3Z" style="fill:#fafafa"></path><path d="M220.67,321.18l-5.24,3,2.06,1.19a1.29,1.29,0,0,0,1.12,0l2.06-1.19Z" style="opacity:0.1"></path><polygon points="218.05 319.67 218.05 322.37 215.16 324.04 212.82 322.69 218.05 319.67" style="opacity:0.1"></polygon><path d="M215.43,320.88v-2.54h0a1.1,1.1,0,0,0-.55.14l-4.12,2.37a.34.34,0,0,0,0,.65l1.79,1Z" style="opacity:0.1"></path><path d="M217.57,312.11l-.31.18-2,5.46,8.19,4.73.3-.18,2-5.46Z" style="fill:#e0e0e0"></path><polygon points="223.48 322.48 215.29 317.75 217.26 312.29 225.45 317.02 223.48 322.48" style="fill:#e6e6e6"></polygon><polygon points="223.4 322.25 215.48 317.68 217.34 312.52 225.26 317.09 223.4 322.25" style="opacity:0.1"></polygon><polygon points="215.78 317.56 223.48 322 225.26 317.09 217.56 312.64 215.78 317.56" style="opacity:0.1"></polygon><polygon points="215.78 317.56 215.48 317.68 223.4 322.25 223.48 322 215.78 317.56" style="opacity:0.30000000000000004"></polygon><polygon points="217.57 312.11 225.76 316.84 225.45 317.02 217.26 312.29 217.57 312.11" style="fill:#f0f0f0"></polygon></g></g></g></svg>
