<svg width="240" height="240" viewBox="0 0 240 240" fill="#0101ff" xmlns="http://www.w3.org/2000/svg">
  <path d="M193.171 0H46.829C20.966 0 0 20.966 0 46.83v146.34C0 219.034 20.966 240 46.83 240h146.34c25.864 0 46.83-20.966 46.83-46.829V46.829C240 20.966 219.034 0 193.171 0Z" fill="#0101ff"/>
  <path d="M130 48c0-5.523-4.477-10-10-10s-10 4.477-10 10h20Zm-17.071 151.071c3.905 3.905 10.237 3.905 14.142 0l63.64-63.64c3.905-3.905 3.905-10.236 0-14.142-3.906-3.905-10.237-3.905-14.142 0L120 177.858l-56.569-56.569c-3.905-3.905-10.236-3.905-14.142 0-3.905 3.906-3.905 10.237 0 14.142l63.64 63.64ZM110 48v69.616h20V48h-20Zm0 69.616V192h20v-74.384h-20Z" fill="#ffff"/>
</svg>
